<svg width="32" height="32" viewBox="0 0 32 32" fill="none" xmlns="http://www.w3.org/2000/svg">
<circle cx="16" cy="16" r="16" fill="#46C2ED"/>
<path d="M8 7.64935C9.13208 6.21137 9.70058 6.4736 10.6667 7.64935V20.2208C10.6667 20.2208 9.97134 21.3334 9.33333 21.3334C8.69533 21.3334 8 20.2208 8 20.2208V7.64935Z" fill="#F9FAFB"/>
<path d="M20 7.64935C21.1321 6.21137 21.7006 6.4736 22.6667 7.64935V20.2208C22.6667 20.2208 21.9713 21.3334 21.3333 21.3334C20.6953 21.3334 20 20.2208 20 20.2208V7.64935Z" fill="#F9FAFB"/>
<path d="M12 8.62529C13.1321 7.71022 13.7006 7.87709 14.6667 8.62529V16.6253C14.6667 16.6253 13.9713 17.3333 13.3333 17.3333C12.6953 17.3333 12 16.6253 12 16.6253V8.62529Z" fill="#F9FAFB"/>
<path d="M16 10.0479C17.1321 9.00207 17.7006 9.19278 18.6667 10.0479V19.1907C18.6667 19.1907 17.9713 19.9999 17.3333 19.9999C16.6953 19.9999 16 19.1907 16 19.1907V10.0479Z" fill="#F9FAFB"/>
<path d="M7.25054 23.1413C13.5486 25.2564 17.3274 25.2564 24.4652 23.1413C31.603 21.0262 19.4268 26.6667 15.6479 26.6667C11.8691 26.6667 0.952507 21.0262 7.25054 23.1413Z" fill="#F9FAFB"/>
</svg>
